<?xml version="1.0" standalone="no"?>
<!DOCTYPE svg PUBLIC "-//W3C//DTD SVG 20010904//EN"
 "http://www.w3.org/TR/2001/REC-SVG-20010904/DTD/svg10.dtd">
<svg version="1.0" xmlns="http://www.w3.org/2000/svg"
 width="1024.000000pt" height="1024.000000pt" viewBox="0 0 1024.000000 1024.000000"
 preserveAspectRatio="xMidYMid meet">
<metadata>
Created by potrace 1.14, written by Peter Selinger 2001-2017
</metadata>
<g transform="translate(0.000000,1024.000000) scale(0.100000,-0.100000)"
fill="#000000" stroke="none">
<path d="M6899 9816 c-2 -2 -49 -6 -104 -9 -55 -4 -116 -8 -135 -11 -19 -2
-64 -7 -100 -10 -36 -4 -76 -9 -90 -11 -14 -3 -38 -7 -55 -9 -95 -16 -270 -48
-325 -61 -8 -2 -22 -4 -30 -4 -40 -3 -46 -25 -76 -271 -2 -19 -17 -122 -32
-228 l-28 -193 61 -32 c104 -56 164 -133 183 -236 24 -131 -29 -259 -163 -396
-141 -144 -248 -217 -510 -345 -253 -123 -464 -180 -690 -186 -248 -7 -368 43
-437 183 -28 57 -32 77 -32 142 0 100 7 126 61 237 16 33 23 58 17 63 -41 38
-529 351 -540 347 -38 -14 -342 -234 -479 -345 -44 -36 -82 -66 -84 -68 -2 -1
52 -131 120 -288 l123 -286 45 8 c76 12 203 7 259 -10 124 -38 247 -153 288
-269 41 -118 37 -212 -20 -418 -22 -79 -137 -275 -231 -395 -161 -204 -284
-320 -480 -452 -108 -73 -180 -110 -300 -154 -85 -31 -98 -33 -225 -33 l-135
-1 -75 38 c-119 60 -207 165 -240 287 -15 52 -16 187 -2 245 l9 41 -116 49
c-64 27 -138 59 -166 71 -206 91 -297 126 -304 118 -70 -77 -411 -544 -411
-563 0 -7 341 -524 356 -540 2 -3 23 6 47 18 123 67 232 85 333 56 110 -31
180 -101 220 -221 28 -87 26 -319 -5 -464 -48 -227 -153 -486 -280 -690 -156
-250 -334 -411 -492 -444 -85 -18 -140 -11 -216 25 -69 33 -114 81 -157 167
-20 39 -31 52 -44 48 -9 -3 -39 -8 -67 -11 -27 -4 -61 -9 -75 -11 -14 -2 -88
-12 -165 -23 -365 -52 -354 -50 -360 -74 -34 -147 -39 -174 -65 -332 -17 -106
-24 -163 -36 -270 -13 -122 -19 -277 -19 -505 0 -273 9 -439 30 -575 2 -16 7
-52 10 -80 7 -51 49 -289 60 -335 3 -14 8 -36 11 -50 66 -329 255 -810 428
-1087 180 -290 395 -497 554 -534 l32 -7 -20 27 c-72 91 -198 314 -238 421 -8
19 -23 58 -34 85 -102 258 -192 656 -224 990 -3 28 -7 66 -10 85 -10 60 -13
651 -4 735 15 150 21 190 42 284 42 199 113 329 229 423 128 105 303 126 430
54 46 -26 76 -62 124 -151 395 -731 613 -959 958 -999 26 -4 47 -4 47 -1 0 3
-25 35 -55 71 -161 189 -300 479 -330 689 -3 22 -8 45 -10 52 -19 58 -24 300
-8 433 70 595 405 1235 1029 1965 214 250 622 675 855 890 186 172 256 234
384 341 666 554 1253 866 1805 960 113 19 386 25 495 11 78 -10 235 -50 326
-83 160 -58 353 -176 511 -312 16 -14 17 -12 14 29 -29 332 -277 584 -901 919
-181 97 -216 121 -246 168 -41 65 -52 114 -46 206 8 124 77 244 187 328 100
76 299 146 465 162 17 2 71 7 120 12 170 17 729 9 870 -11 17 -3 53 -7 80 -10
28 -3 75 -10 105 -15 30 -5 71 -12 90 -15 28 -4 151 -29 250 -50 312 -67 653
-205 878 -356 56 -38 102 -66 102 -63 0 17 -72 155 -103 197 -190 264 -666
552 -1175 712 -73 23 -289 83 -323 90 -9 2 -59 12 -110 24 -52 11 -114 23
-139 26 -24 4 -47 8 -50 10 -7 4 -62 12 -135 20 -33 4 -67 8 -75 10 -8 2 -51
7 -95 11 -44 3 -89 8 -100 11 -24 6 -610 14 -616 9z"/>
<path d="M5429 9530 c-194 -62 -488 -170 -597 -221 -34 -16 -64 -29 -67 -29
-3 0 -76 -34 -163 -77 -86 -42 -159 -77 -162 -77 -6 -2 -153 -83 -193 -107
l-29 -17 147 -98 c81 -55 154 -103 163 -109 9 -5 45 -29 79 -52 35 -24 65 -43
68 -43 3 0 16 9 28 20 44 42 225 155 313 197 151 71 294 109 484 128 36 4 66
7 67 8 1 2 50 341 59 412 2 22 7 59 10 83 5 32 3 42 -7 41 -8 0 -98 -27 -200
-59z"/>
<path d="M2980 8088 c-256 -228 -867 -849 -855 -869 2 -3 35 -18 72 -34 37
-15 91 -38 118 -50 136 -60 266 -115 274 -115 5 0 21 19 36 43 125 188 382
445 553 551 23 14 42 31 42 36 0 6 -39 101 -86 213 -47 111 -91 214 -97 230
-7 15 -14 27 -17 27 -3 0 -21 -15 -40 -32z"/>
<path d="M1211 5977 c-64 -115 -204 -398 -263 -532 -107 -244 -263 -681 -292
-821 l-7 -32 48 9 c26 5 66 12 88 14 37 5 53 7 130 20 17 3 50 7 75 10 25 3
54 8 66 10 11 2 45 7 75 11 30 3 55 7 55 8 1 0 5 34 8 75 24 270 123 519 297
750 27 35 46 69 42 75 -13 22 -294 446 -296 446 -1 0 -13 -19 -26 -43z"/>
</g>
</svg>
